# xmcd CD database file
#
# Track frame offsets:
#	150
#	12480
#	25676
#	36900
#	53646
#	68238
#	79780
#	97269
#	105760
#	117393
#	131323
#	147267
#	158794
#	171339
#
# Disc length: 2468 seconds
#
# Revision: 0
# Processed by: cddbd v1.5.2PL0 Copyright (c) Steve Scherf et al.
# Submitted via: CDex 1.51
#
DISCID=b409a20e
DTITLE=Hot Club Of Cowtown - What Makes Bob Holler
DYEAR=2010
DGENRE=Country
TTITLE0=She's Killing Me
TTITLE1=It's All Your Fault
TTITLE2=Time Changes Everything
TTITLE3=Maiden's Prayer
TTITLE4=Oklahoma Hills
TTITLE5=Big Ball In Cowtown
TTITLE6=Keeper Of My Heart
TTITLE7=Smith's Reel
TTITLE8=The Devil Ain't Lazy
TTITLE9=Along The Navajo Trail
TTITLE10=Faded Love
TTITLE11=What's The Matter With The Mill
TTITLE12=Osage Stomp
TTITLE13=Stay A Little Longer
EXTD=YEAR: 2010
EXTT0=
EXTT1=
EXTT2=
EXTT3=
EXTT4=
EXTT5=
EXTT6=
EXTT7=
EXTT8=
EXTT9=
EXTT10=
EXTT11=
EXTT12=
EXTT13=
PLAYORDER=
